<svg width="240" height="240" viewBox="0 0 240 240" fill="none" xmlns="http://www.w3.org/2000/svg">
	<path d="M58.8386 94.4507H79.8138L61.6046 170H38.2092L20 94.4507H40.9752L49.8493 144.935L58.8386 94.4507Z" fill="#EF356A"/>
	<path d="M87.5588 91.3246H107.727V170H87.5588V91.3246Z" fill="#EF356A"/>
	<path d="M144.027 152.701V141.993C144.027 140.267 143.067 139.404 141.146 139.404H130.082C124.397 139.404 120.363 138.148 117.981 135.638C115.676 133.049 114.524 129.362 114.524 124.576V109.043C114.524 99.3148 120.132 94.4507 131.35 94.4507H147.139C158.356 94.4507 163.965 99.3148 163.965 109.043V118.104H143.797V111.749C143.797 110.023 142.836 109.16 140.916 109.16H137.573C135.653 109.16 134.692 110.023 134.692 111.749V122.929C134.692 124.655 135.653 125.518 137.573 125.518H148.407C154.092 125.518 158.126 126.734 160.508 129.166C162.966 131.598 164.196 135.167 164.196 139.874V155.408C164.196 165.136 158.587 170 147.369 170H131.696C120.401 170 114.754 165.136 114.754 155.408V146.347H134.923V152.701C134.923 154.427 135.883 155.29 137.804 155.29H141.146C143.067 155.29 144.027 154.427 144.027 152.701Z" fill="#EF356A"/>
	<path d="M194.761 155.29H220V170H174.592V94.4507H218.963V109.16H194.761V124.576H215.621V139.286H194.761V155.29Z" fill="#EF356A"/>
	<path d="M92.1308 73.7434C94.1791 71.6478 95.2033 70.6001 96.3917 70.2262C97.3507 69.9246 98.3763 69.9246 99.3353 70.2262C100.524 70.6001 101.548 71.6478 103.596 73.7434L106.984 77.2091C111.404 81.7314 113.614 83.9926 113.718 85.9413C113.801 87.4883 113.191 88.9898 112.06 90.0231C110.637 91.3248 107.508 91.3248 101.251 91.3248H94.4759C88.2189 91.3248 85.0904 91.3248 83.6666 90.0231C82.5362 88.9898 81.9264 87.4883 82.0088 85.9413C82.1126 83.9926 84.3228 81.7314 88.7432 77.2091L92.1308 73.7434Z" fill="#EF356A"/>
</svg>
